<svg width="189" height="80" viewBox="0 0 189 80" fill="none" xmlns="http://www.w3.org/2000/svg">
<path d="M95.432 11.66C97.976 11.66 100.004 12.296 101.516 13.568C103.052 14.84 104.012 16.52 104.396 18.608H98.636C98.468 17.792 98.084 17.156 97.484 16.7C96.908 16.22 96.176 15.98 95.288 15.98C94.592 15.98 94.064 16.136 93.704 16.448C93.344 16.736 93.164 17.156 93.164 17.708C93.164 18.332 93.488 18.8 94.136 19.112C94.808 19.424 95.852 19.736 97.268 20.048C98.804 20.408 100.064 20.78 101.048 21.164C102.032 21.524 102.884 22.124 103.604 22.964C104.324 23.804 104.684 24.932 104.684 26.348C104.684 27.5 104.372 28.52 103.748 29.408C103.124 30.296 102.224 30.992 101.048 31.496C99.872 32 98.48 32.252 96.872 32.252C94.16 32.252 91.988 31.652 90.356 30.452C88.724 29.252 87.728 27.536 87.368 25.304H93.308C93.404 26.168 93.764 26.828 94.388 27.284C95.036 27.74 95.864 27.968 96.872 27.968C97.568 27.968 98.096 27.812 98.456 27.5C98.816 27.164 98.996 26.732 98.996 26.204C98.996 25.508 98.66 25.016 97.988 24.728C97.34 24.416 96.272 24.092 94.784 23.756C93.296 23.444 92.072 23.108 91.112 22.748C90.152 22.388 89.324 21.812 88.628 21.02C87.932 20.204 87.584 19.1 87.584 17.708C87.584 15.908 88.268 14.456 89.636 13.352C91.004 12.224 92.936 11.66 95.432 11.66ZM118.029 11.66C120.021 11.66 121.797 12.08 123.357 12.92C124.941 13.736 126.177 14.924 127.065 16.484C127.977 18.044 128.433 19.868 128.433 21.956C128.433 24.044 127.977 25.868 127.065 27.428C126.177 28.988 124.941 30.188 123.357 31.028C121.797 31.844 120.021 32.252 118.029 32.252C116.037 32.252 114.249 31.844 112.665 31.028C111.081 30.188 109.833 28.988 108.921 27.428C108.033 25.868 107.589 24.044 107.589 21.956C107.589 19.868 108.033 18.044 108.921 16.484C109.833 14.924 111.081 13.736 112.665 12.92C114.249 12.08 116.037 11.66 118.029 11.66ZM118.029 16.988C116.853 16.988 115.857 17.42 115.041 18.284C114.249 19.124 113.853 20.348 113.853 21.956C113.853 23.564 114.249 24.788 115.041 25.628C115.857 26.468 116.853 26.888 118.029 26.888C119.205 26.888 120.189 26.468 120.981 25.628C121.773 24.788 122.169 23.564 122.169 21.956C122.169 20.348 121.773 19.124 120.981 18.284C120.189 17.42 119.205 16.988 118.029 16.988ZM141.237 11.66C143.829 11.66 146.001 12.38 147.753 13.82C149.505 15.236 150.609 17.192 151.065 19.688H144.549C144.357 18.824 143.961 18.152 143.361 17.672C142.761 17.192 142.005 16.952 141.093 16.952C140.013 16.952 139.125 17.384 138.429 18.248C137.733 19.088 137.385 20.324 137.385 21.956C137.385 23.588 137.733 24.836 138.429 25.7C139.125 26.54 140.013 26.96 141.093 26.96C142.005 26.96 142.761 26.72 143.361 26.24C143.961 25.76 144.357 25.088 144.549 24.224H151.065C150.609 26.72 149.505 28.688 147.753 30.128C146.001 31.544 143.829 32.252 141.237 32.252C139.269 32.252 137.517 31.844 135.981 31.028C134.469 30.188 133.281 28.988 132.417 27.428C131.553 25.868 131.121 24.044 131.121 21.956C131.121 19.844 131.541 18.02 132.381 16.484C133.245 14.924 134.445 13.736 135.981 12.92C137.517 12.08 139.269 11.66 141.237 11.66ZM154.242 6.26C154.242 5.324 154.578 4.556 155.25 3.956C155.922 3.332 156.81 3.02 157.914 3.02C159.018 3.02 159.906 3.332 160.578 3.956C161.25 4.556 161.586 5.324 161.586 6.26C161.586 7.172 161.25 7.94 160.578 8.564C159.906 9.164 159.018 9.464 157.914 9.464C156.81 9.464 155.922 9.164 155.25 8.564C154.578 7.94 154.242 7.172 154.242 6.26ZM160.974 11.912V32H154.818V11.912H160.974ZM175.16 11.66C177.152 11.66 178.928 12.08 180.488 12.92C182.072 13.736 183.308 14.924 184.196 16.484C185.108 18.044 185.564 19.868 185.564 21.956C185.564 24.044 185.108 25.868 184.196 27.428C183.308 28.988 182.072 30.188 180.488 31.028C178.928 31.844 177.152 32.252 175.16 32.252C173.168 32.252 171.38 31.844 169.796 31.028C168.212 30.188 166.964 28.988 166.052 27.428C165.164 25.868 164.72 24.044 164.72 21.956C164.72 19.868 165.164 18.044 166.052 16.484C166.964 14.924 168.212 13.736 169.796 12.92C171.38 12.08 173.168 11.66 175.16 11.66ZM175.16 16.988C173.984 16.988 172.988 17.42 172.172 18.284C171.38 19.124 170.984 20.348 170.984 21.956C170.984 23.564 171.38 24.788 172.172 25.628C172.988 26.468 173.984 26.888 175.16 26.888C176.336 26.888 177.32 26.468 178.112 25.628C178.904 24.788 179.3 23.564 179.3 21.956C179.3 20.348 178.904 19.124 178.112 18.284C177.32 17.42 176.336 16.988 175.16 16.988ZM97.196 44.66C99.788 44.66 101.96 45.38 103.712 46.82C105.464 48.236 106.568 50.192 107.024 52.688H100.508C100.316 51.824 99.92 51.152 99.32 50.672C98.72 50.192 97.964 49.952 97.052 49.952C95.972 49.952 95.084 50.384 94.388 51.248C93.692 52.088 93.344 53.324 93.344 54.956C93.344 56.588 93.692 57.836 94.388 58.7C95.084 59.54 95.972 59.96 97.052 59.96C97.964 59.96 98.72 59.72 99.32 59.24C99.92 58.76 100.316 58.088 100.508 57.224H107.024C106.568 59.72 105.464 61.688 103.712 63.128C101.96 64.544 99.788 65.252 97.196 65.252C95.228 65.252 93.476 64.844 91.94 64.028C90.428 63.188 89.24 61.988 88.376 60.428C87.512 58.868 87.08 57.044 87.08 54.956C87.08 52.844 87.5 51.02 88.34 49.484C89.204 47.924 90.404 46.736 91.94 45.92C93.476 45.08 95.228 44.66 97.196 44.66ZM116.393 48.692C117.161 47.468 118.145 46.496 119.345 45.776C120.569 45.056 121.889 44.696 123.305 44.696V51.284H121.541C119.909 51.284 118.637 51.632 117.725 52.328C116.837 53.024 116.393 54.2 116.393 55.856V65H110.237V44.912H116.393V48.692ZM144.962 54.416C144.962 54.92 144.902 55.472 144.782 56.072H130.85C130.922 57.584 131.306 58.676 132.002 59.348C132.698 59.996 133.586 60.32 134.666 60.32C135.578 60.32 136.334 60.092 136.934 59.636C137.534 59.18 137.93 58.592 138.122 57.872H144.638C144.374 59.288 143.798 60.56 142.91 61.688C142.022 62.792 140.894 63.668 139.526 64.316C138.158 64.94 136.634 65.252 134.954 65.252C132.986 65.252 131.234 64.844 129.698 64.028C128.186 63.188 126.998 61.988 126.134 60.428C125.27 58.868 124.838 57.044 124.838 54.956C124.838 52.844 125.258 51.02 126.098 49.484C126.962 47.924 128.162 46.736 129.698 45.92C131.234 45.08 132.986 44.66 134.954 44.66C136.946 44.66 138.698 45.068 140.21 45.884C141.722 46.7 142.886 47.852 143.702 49.34C144.542 50.804 144.962 52.496 144.962 54.416ZM138.734 53.48C138.758 52.16 138.398 51.176 137.654 50.528C136.934 49.856 136.034 49.52 134.954 49.52C133.826 49.52 132.89 49.856 132.146 50.528C131.402 51.2 130.982 52.184 130.886 53.48H138.734ZM155.803 44.66C157.339 44.66 158.659 45.008 159.763 45.704C160.867 46.4 161.671 47.348 162.175 48.548V38.36H168.331V65H162.175V61.364C161.671 62.564 160.867 63.512 159.763 64.208C158.659 64.904 157.339 65.252 155.803 65.252C154.147 65.252 152.659 64.844 151.339 64.028C150.043 63.188 149.011 61.988 148.243 60.428C147.499 58.868 147.127 57.044 147.127 54.956C147.127 52.844 147.499 51.02 148.243 49.484C149.011 47.924 150.043 46.736 151.339 45.92C152.659 45.08 154.147 44.66 155.803 44.66ZM157.783 50.06C156.463 50.06 155.395 50.492 154.579 51.356C153.787 52.22 153.391 53.42 153.391 54.956C153.391 56.492 153.787 57.692 154.579 58.556C155.395 59.42 156.463 59.852 157.783 59.852C159.079 59.852 160.135 59.408 160.951 58.52C161.791 57.632 162.211 56.444 162.211 54.956C162.211 53.444 161.791 52.256 160.951 51.392C160.135 50.504 159.079 50.06 157.783 50.06ZM178.005 59.852H187.293V65H171.273V60.14L179.913 50.024H171.417V44.912H186.933V49.772L178.005 59.852Z" fill="#8B15C2"/>
<g filter="url(#filter0_d)">
<rect x="8" y="6" width="64" height="64" rx="6" fill="white"/>
</g>
<circle cx="41" cy="39" r="8" fill="#F78D1D"/>
<circle cx="40.5" cy="38.5" r="13.5" stroke="#8B15C2" stroke-width="16"/>
<circle cx="40.5" cy="38.5" r="13" stroke="white" stroke-width="5"/>
<rect x="50" y="36" width="7" height="5" fill="#8B15C2"/>
<defs>
<filter id="filter0_d" x="0" y="0" width="80" height="80" filterUnits="userSpaceOnUse" color-interpolation-filters="sRGB">
<feFlood flood-opacity="0" result="BackgroundImageFix"/>
<feColorMatrix in="SourceAlpha" type="matrix" values="0 0 0 0 0 0 0 0 0 0 0 0 0 0 0 0 0 0 127 0"/>
<feOffset dy="2"/>
<feGaussianBlur stdDeviation="4"/>
<feColorMatrix type="matrix" values="0 0 0 0 0 0 0 0 0 0 0 0 0 0 0 0 0 0 0.1 0"/>
<feBlend mode="normal" in2="BackgroundImageFix" result="effect1_dropShadow"/>
<feBlend mode="normal" in="SourceGraphic" in2="effect1_dropShadow" result="shape"/>
</filter>
</defs>
</svg>
