<svg width="105" height="66" viewBox="0 0 105 66" fill="none" xmlns="http://www.w3.org/2000/svg">
<path d="M9.28436 9.98007C11.9289 9.98007 14.0371 10.6412 15.6089 11.9635C17.2056 13.2858 18.2035 15.0322 18.6027 17.2027H12.615C12.4404 16.3545 12.0412 15.6933 11.4175 15.2193C10.8187 14.7203 10.0578 14.4708 9.13466 14.4708C8.41115 14.4708 7.86228 14.633 7.48804 14.9573C7.11381 15.2567 6.9267 15.6933 6.9267 16.2672C6.9267 16.9158 7.26351 17.4023 7.93712 17.7267C8.63569 18.051 9.72096 18.3753 11.1929 18.6997C12.7897 19.0739 14.0995 19.4606 15.1224 19.8598C16.1453 20.234 17.0309 20.8577 17.7794 21.7309C18.5279 22.6041 18.9021 23.7767 18.9021 25.2487C18.9021 26.4463 18.5778 27.5066 17.9291 28.4297C17.2804 29.3528 16.3449 30.0763 15.1224 30.6002C13.8999 31.1241 12.4528 31.3861 10.7813 31.3861C7.96207 31.3861 5.70421 30.7624 4.00769 29.515C2.31118 28.2675 1.2758 26.4837 0.901572 24.1634H7.07639C7.17618 25.0616 7.55042 25.7477 8.19908 26.2217C8.8727 26.6957 9.73343 26.9328 10.7813 26.9328C11.5048 26.9328 12.0537 26.7706 12.4279 26.4463C12.8021 26.097 12.9892 25.6479 12.9892 25.099C12.9892 24.3755 12.64 23.8641 11.9414 23.5647C11.2678 23.2403 10.1576 22.9035 8.61074 22.5542C7.06392 22.2299 5.79153 21.8806 4.79358 21.5064C3.79563 21.1322 2.9349 20.5334 2.21138 19.7101C1.48787 18.8618 1.12611 17.7142 1.12611 16.2672C1.12611 14.396 1.83715 12.8866 3.25923 11.739C4.68131 10.5664 6.68968 9.98007 9.28436 9.98007ZM32.7744 9.98007C34.8451 9.98007 36.6913 10.4167 38.313 11.2899C39.9596 12.1381 41.2445 13.3731 42.1676 14.9948C43.1157 16.6164 43.5897 18.5125 43.5897 20.6831C43.5897 22.8536 43.1157 24.7497 42.1676 26.3714C41.2445 27.9931 39.9596 29.2405 38.313 30.1137C36.6913 30.962 34.8451 31.3861 32.7744 31.3861C30.7036 31.3861 28.845 30.962 27.1983 30.1137C25.5517 29.2405 24.2544 27.9931 23.3063 26.3714C22.3832 24.7497 21.9217 22.8536 21.9217 20.6831C21.9217 18.5125 22.3832 16.6164 23.3063 14.9948C24.2544 13.3731 25.5517 12.1381 27.1983 11.2899C28.845 10.4167 30.7036 9.98007 32.7744 9.98007ZM32.7744 15.5187C31.5519 15.5187 30.5165 15.9678 29.6683 16.8659C28.845 17.7391 28.4333 19.0115 28.4333 20.6831C28.4333 22.3547 28.845 23.627 29.6683 24.5003C30.5165 25.3735 31.5519 25.8101 32.7744 25.8101C33.9969 25.8101 35.0198 25.3735 35.8431 24.5003C36.6664 23.627 37.0781 22.3547 37.0781 20.6831C37.0781 19.0115 36.6664 17.7391 35.8431 16.8659C35.0198 15.9678 33.9969 15.5187 32.7744 15.5187ZM56.9 9.98007C59.5945 9.98007 61.8524 10.7285 63.6736 12.2255C65.4949 13.6974 66.6425 15.7308 67.1166 18.3254H60.343C60.1434 17.4273 59.7317 16.7287 59.108 16.2297C58.4843 15.7308 57.6984 15.4813 56.7503 15.4813C55.6277 15.4813 54.7045 15.9304 53.981 16.8285C53.2575 17.7017 52.8958 18.9866 52.8958 20.6831C52.8958 22.3796 53.2575 23.6769 53.981 24.5751C54.7045 25.4483 55.6277 25.8849 56.7503 25.8849C57.6984 25.8849 58.4843 25.6354 59.108 25.1364C59.7317 24.6375 60.1434 23.9389 60.343 23.0407H67.1166C66.6425 25.6354 65.4949 27.6812 63.6736 29.1781C61.8524 30.6501 59.5945 31.3861 56.9 31.3861C54.8542 31.3861 53.033 30.962 51.4363 30.1137C49.8645 29.2405 48.6295 27.9931 47.7314 26.3714C46.8332 24.7497 46.3841 22.8536 46.3841 20.6831C46.3841 18.4876 46.8207 16.5915 47.6939 14.9948C48.5921 13.3731 49.8395 12.1381 51.4363 11.2899C53.033 10.4167 54.8542 9.98007 56.9 9.98007ZM70.4194 4.3666C70.4194 3.3936 70.7687 2.59524 71.4673 1.97152C72.1658 1.32285 73.089 0.998517 74.2366 0.998517C75.3842 0.998517 76.3073 1.32285 77.0059 1.97152C77.7045 2.59524 78.0538 3.3936 78.0538 4.3666C78.0538 5.31465 77.7045 6.11301 77.0059 6.76168C76.3073 7.3854 75.3842 7.69726 74.2366 7.69726C73.089 7.69726 72.1658 7.3854 71.4673 6.76168C70.7687 6.11301 70.4194 5.31465 70.4194 4.3666ZM77.4176 10.242V31.1241H71.0182V10.242H77.4176ZM92.1646 9.98007C94.2354 9.98007 96.0816 10.4167 97.7032 11.2899C99.3499 12.1381 100.635 13.3731 101.558 14.9948C102.506 16.6164 102.98 18.5125 102.98 20.6831C102.98 22.8536 102.506 24.7497 101.558 26.3714C100.635 27.9931 99.3499 29.2405 97.7032 30.1137C96.0816 30.962 94.2354 31.3861 92.1646 31.3861C90.0939 31.3861 88.2352 30.962 86.5886 30.1137C84.942 29.2405 83.6446 27.9931 82.6966 26.3714C81.7735 24.7497 81.3119 22.8536 81.3119 20.6831C81.3119 18.5125 81.7735 16.6164 82.6966 14.9948C83.6446 13.3731 84.942 12.1381 86.5886 11.2899C88.2352 10.4167 90.0939 9.98007 92.1646 9.98007ZM92.1646 15.5187C90.9421 15.5187 89.9068 15.9678 89.0585 16.8659C88.2352 17.7391 87.8235 19.0115 87.8235 20.6831C87.8235 22.3547 88.2352 23.627 89.0585 24.5003C89.9068 25.3735 90.9421 25.8101 92.1646 25.8101C93.3871 25.8101 94.41 25.3735 95.2333 24.5003C96.0566 23.627 96.4683 22.3547 96.4683 20.6831C96.4683 19.0115 96.0566 17.7391 95.2333 16.8659C94.41 15.9678 93.3871 15.5187 92.1646 15.5187ZM11.1181 43.9801C13.8126 43.9801 16.0704 44.7285 17.8917 46.2255C19.7129 47.6974 20.8606 49.7308 21.3346 52.3254H14.561C14.3614 51.4273 13.9498 50.7287 13.3261 50.2297C12.7023 49.7308 11.9164 49.4813 10.9684 49.4813C9.8457 49.4813 8.9226 49.9304 8.19908 50.8285C7.47557 51.7017 7.11381 52.9866 7.11381 54.6831C7.11381 56.3796 7.47557 57.6769 8.19908 58.5751C8.9226 59.4483 9.8457 59.8849 10.9684 59.8849C11.9164 59.8849 12.7023 59.6354 13.3261 59.1364C13.9498 58.6375 14.3614 57.9389 14.561 57.0407H21.3346C20.8606 59.6354 19.7129 61.6812 17.8917 63.1781C16.0704 64.6501 13.8126 65.3861 11.1181 65.3861C9.07229 65.3861 7.25103 64.962 5.65431 64.1137C4.08254 63.2405 2.84757 61.9931 1.94942 60.3714C1.05126 58.7497 0.602186 56.8536 0.602186 54.6831C0.602186 52.4876 1.03879 50.5915 1.912 48.9948C2.81015 47.3731 4.05759 46.1381 5.65431 45.2899C7.25103 44.4167 9.07229 43.9801 11.1181 43.9801ZM31.0743 48.1715C31.8726 46.8991 32.8955 45.8887 34.143 45.1402C35.4154 44.3917 36.7875 44.0175 38.2595 44.0175V50.8659H36.4258C34.7293 50.8659 33.407 51.2277 32.4589 51.9512C31.5358 52.6747 31.0743 53.8972 31.0743 55.6187V65.1241H24.6749V44.242H31.0743V48.1715ZM60.7722 54.1217C60.7722 54.6457 60.7098 55.2195 60.585 55.8432H46.1023C46.1771 57.415 46.5763 58.5501 47.2998 59.2487C48.0233 59.9223 48.9465 60.2591 50.0691 60.2591C51.0172 60.2591 51.8031 60.0221 52.4268 59.5481C53.0505 59.0741 53.4622 58.4628 53.6618 57.7144H60.4354C60.1609 59.1863 59.5621 60.5086 58.639 61.6812C57.7159 62.8289 56.5433 63.7395 55.1213 64.4131C53.6992 65.0618 52.1149 65.3861 50.3685 65.3861C48.3227 65.3861 46.5015 64.962 44.9048 64.1137C43.333 63.2405 42.098 61.9931 41.1999 60.3714C40.3017 58.7497 39.8526 56.8536 39.8526 54.6831C39.8526 52.4876 40.2892 50.5915 41.1624 48.9948C42.0606 47.3731 43.308 46.1381 44.9048 45.2899C46.5015 44.4167 48.3227 43.9801 50.3685 43.9801C52.4393 43.9801 54.2605 44.4042 55.8323 45.2525C57.4041 46.1007 58.6141 47.2983 59.4624 48.8451C60.3356 50.367 60.7722 52.1258 60.7722 54.1217ZM54.298 53.1487C54.3229 51.7766 53.9487 50.7537 53.1753 50.08C52.4268 49.3815 51.4912 49.0322 50.3685 49.0322C49.1959 49.0322 48.2229 49.3815 47.4495 50.08C46.6761 50.7786 46.2395 51.8015 46.1397 53.1487H54.298ZM72.0418 43.9801C73.6385 43.9801 75.0107 44.3418 76.1583 45.0653C77.306 45.7889 78.1418 46.7743 78.6657 48.0218V37.431H85.065V65.1241H78.6657V61.3444C78.1418 62.5918 77.306 63.5773 76.1583 64.3008C75.0107 65.0244 73.6385 65.3861 72.0418 65.3861C70.3203 65.3861 68.7735 64.962 67.4013 64.1137C66.0541 63.2405 64.9813 61.9931 64.1829 60.3714C63.4095 58.7497 63.0228 56.8536 63.0228 54.6831C63.0228 52.4876 63.4095 50.5915 64.1829 48.9948C64.9813 47.3731 66.0541 46.1381 67.4013 45.2899C68.7735 44.4167 70.3203 43.9801 72.0418 43.9801ZM74.1001 49.5935C72.7279 49.5935 71.6177 50.0426 70.7694 50.9408C69.9461 51.8389 69.5344 53.0864 69.5344 54.6831C69.5344 56.2798 69.9461 57.5272 70.7694 58.4254C71.6177 59.3236 72.7279 59.7726 74.1001 59.7726C75.4473 59.7726 76.545 59.3111 77.3933 58.388C78.2665 57.4649 78.7031 56.2299 78.7031 54.6831C78.7031 53.1113 78.2665 51.8764 77.3933 50.9782C76.545 50.0551 75.4473 49.5935 74.1001 49.5935ZM95.1219 59.7726H104.777V65.1241H88.1238V60.072L97.1053 49.5561H88.2735V44.242H104.403V49.2942L95.1219 59.7726Z" fill="#4E1569"/>
</svg>
